# xmcd
#
# Track frame offsets:
# 150
# 15202
# 28430
# 38460
# 60735
# 72894
# 85408
# 104713
# 120956
# 141488
# 157438
# 169200
# 182095
# 197530
# 212120
# 231059
# 241576
# 259870
#
# Disc length: 3639 seconds
#
#
# Revision: 2
# Processed by: cddbd v1.5.2PL0 Copyright (c) Steve Scherf et al.
# Submitted via: FreeRIP 2.951 
#
DISCID=fc0e3512
DTITLE=Canto, Bebo e Choro - Canto, Bebo e Choro Vol 7
DYEAR=2000
DGENRE=Soundtrack
TTITLE0=Quem Bate Nunca Se Lembra
TTITLE1=Meu Ultimo Amor
TTITLE2=Esquecido
TTITLE3=Mais Uma Noite Vou Dormir Sem o Meu Bem
TTITLE4=O Beijo do Adeus
TTITLE5=Você Só Me Faz Feliz
TTITLE6=Vontade Dividida
TTITLE7=As Avenidas
TTITLE8=Cada Volta é um Recomeço
TTITLE9=Inimigo do Peito
TTITLE10=Morena Criminosa
TTITLE11=Um Ombro Pra Chorar
TTITLE12=Duas Camisas
TTITLE13=Uma Vez Por Mês
TTITLE14=Do Fundo do Meu Coração
TTITLE15=Amor de Minha Vida
TTITLE16=Rumo a Goiania
TTITLE17=O Abajur
EXTD=DJ Jemelly Rustom
EXTT0=DJ Jemelly Rustom
EXTT1=DJ Jemelly Rustom
EXTT2=DJ Jemelly Rustom
EXTT3=DJ Jemelly Rustom
EXTT4=DJ Jemelly Rustom
EXTT5=DJ Jemelly Rustom
EXTT6=DJ Jemelly Rustom
EXTT7=DJ Jemelly Rustom
EXTT8=DJ Jemelly Rustom
EXTT9=DJ Jemelly Rustom
EXTT10=DJ Jemelly Rustom
EXTT11=DJ Jemelly Rustom
EXTT12=DJ Jemelly Rustom
EXTT13=DJ Jemelly Rustom
EXTT14=DJ Jemelly Rustom
EXTT15=DJ Jemelly Rustom
EXTT16=DJ Jemelly Rustom
EXTT17=DJ Jemelly Rustom
PLAYORDER=
